<?xml version="1.0" standalone="no"?>
<!DOCTYPE svg PUBLIC "-//W3C//DTD SVG 20010904//EN"
 "http://www.w3.org/TR/2001/REC-SVG-20010904/DTD/svg10.dtd">
<svg version="1.0" xmlns="http://www.w3.org/2000/svg"
 width="300.000000pt" height="189.000000pt" viewBox="0 0 300.000000 189.000000"
 preserveAspectRatio="xMidYMid meet">
<metadata>
Created by potrace 1.10, written by Peter Selinger 2001-2011
</metadata>
<g transform="translate(0.000000,189.000000) scale(0.100000,-0.100000)"
fill="#ffffff" stroke="none">
<path d="M1617 1570 c-368 -5 -343 -2 -376 -58 -6 -10 -17 -4 -43 22 l-36 36
-146 0 -146 0 -36 -33 c-35 -32 -36 -34 -35 -110 0 -48 6 -88 16 -106 14 -29
14 -30 -19 -49 -18 -11 -46 -37 -62 -58 l-29 -37 0 -156 c0 -166 4 -195 32
-228 24 -27 57 -36 119 -34 28 1 62 -3 75 -7 23 -9 23 -9 -13 -32 -53 -36 -78
-78 -78 -134 0 -26 7 -60 15 -76 15 -28 14 -30 -12 -44 -32 -16 -75 -60 -93
-94 -6 -13 -12 -48 -12 -78 -1 -44 3 -59 21 -77 21 -21 30 -22 223 -24 161 -2
208 1 233 13 28 13 35 13 61 -1 39 -20 386 -22 424 -1 21 11 30 10 53 -1 22
-11 72 -13 227 -11 235 4 240 5 240 95 0 70 -28 125 -85 165 -43 31 -44 32
-29 59 20 39 18 118 -4 151 -49 74 -130 97 -202 57 -76 -43 -104 -133 -65
-208 15 -29 14 -30 -20 -51 -19 -12 -45 -34 -58 -50 l-25 -29 -44 42 c-24 23
-52 47 -63 53 -18 10 -18 12 -2 34 24 35 22 114 -4 156 -73 118 -239 90 -280
-47 -10 -32 -9 -46 6 -85 l18 -47 -24 -19 c-48 -39 -64 -54 -81 -78 -17 -25
-18 -25 -30 -5 -13 22 -54 62 -87 85 -22 15 -22 16 -5 61 22 58 13 108 -26
153 -17 18 -45 40 -62 47 l-33 14 30 6 c17 4 58 7 92 8 57 1 64 4 84 31 l22
29 28 -19 c26 -19 47 -20 464 -20 478 -1 474 -1 496 57 6 16 9 154 7 354 l-3
327 -24 26 c-22 23 -30 25 -140 28 -64 2 -268 1 -454 -2z m-464 -41 c33 -15
47 -49 47 -115 0 -48 -4 -60 -29 -85 -29 -29 -30 -29 -151 -29 -126 0 -171 11
-184 45 -10 27 -7 135 5 156 6 11 20 24 32 29 32 13 252 12 280 -1z m1035 -1
c17 -17 17 -689 0 -706 -9 -9 -122 -12 -448 -12 -239 0 -440 4 -447 8 -8 5
-12 46 -14 122 l-2 115 32 3 31 3 0 -90 0 -91 400 0 400 0 -1 295 -1 295 -399
0 -399 0 0 -85 0 -85 -33 0 -32 0 3 113 c3 68 9 115 16 119 6 4 207 8 446 8
326 0 439 -3 448 -12z m-93 -353 l0 -250 -345 -2 c-190 -2 -350 1 -357 5 -6 4
-13 36 -14 72 l-3 65 80 5 c43 3 89 11 101 18 60 33 71 111 24 164 -28 32 -32
33 -118 36 l-89 4 3 56 c3 32 6 63 8 70 4 10 80 12 357 10 l353 -3 0 -250z
m-855 135 c0 -13 -7 -20 -20 -20 -23 0 -26 10 -8 28 18 18 28 15 28 -8z m320
-80 c26 -26 25 -68 -2 -97 -21 -22 -27 -23 -190 -23 l-168 0 0 -160 0 -160
-158 0 -157 0 4 155 c3 137 1 155 -13 155 -14 0 -16 -19 -16 -155 l0 -155 -35
0 c-25 0 -44 8 -61 25 l-25 25 3 171 3 171 37 34 38 34 360 0 c347 0 361 -1
380 -20z m-514 -536 c42 -20 64 -59 64 -115 0 -33 -6 -47 -34 -75 -28 -28 -42
-34 -75 -34 -77 0 -131 49 -131 118 0 41 39 95 80 109 47 16 56 16 96 -3z
m489 2 c38 -16 75 -68 75 -104 0 -103 -125 -162 -201 -94 -43 39 -52 113 -18
156 21 27 69 55 97 56 7 0 28 -6 47 -14z m480 0 c64 -27 92 -104 60 -166 -22
-42 -53 -60 -106 -60 -125 0 -161 166 -49 222 42 22 51 22 95 4z m-868 -272
c41 -31 61 -72 64 -134 l3 -55 -222 -3 -222 -2 0 51 c0 68 30 122 84 149 36
18 56 20 153 18 95 -3 116 -6 140 -24z m467 12 c53 -22 87 -75 93 -146 l6 -60
-222 0 -221 0 0 51 c0 68 31 122 84 149 50 25 207 28 260 6z m480 0 c54 -22
89 -78 94 -147 l4 -59 -221 0 -221 0 0 44 c0 77 34 135 95 162 41 18 206 18
249 0z"/>
</g>
</svg>
